<?xml version="1.0" encoding="UTF-8"?>
<svg xmlns="http://www.w3.org/2000/svg" xmlns:xlink="http://www.w3.org/1999/xlink" width="553.65pt" height="1026.34pt" viewBox="0 0 553.65 1026.34" version="1.1">
<defs>
<clipPath id="clip1">
  <path d="M 480 1007 L 493 1007 L 493 1026.339844 L 480 1026.339844 Z M 480 1007 "/>
</clipPath>
<clipPath id="clip2">
  <path d="M 535 1007 L 553.648438 1007 L 553.648438 1021 L 535 1021 Z M 535 1007 "/>
</clipPath>
</defs>
<g id="surface1">
<path style=" stroke:none;fill-rule:nonzero;fill:rgb(0%,0%,0%);fill-opacity:1;" d="M 366.046875 1020.453125 L 366.046875 1003.671875 L 369.5625 1003.671875 L 369.5625 1017.394531 L 377.875 1017.394531 L 377.875 1020.453125 "/>
<path style=" stroke:none;fill-rule:nonzero;fill:rgb(0%,0%,0%);fill-opacity:1;" d="M 378.582031 1020.453125 L 378.582031 1003.695313 L 390.914063 1003.695313 L 390.914063 1006.601563 L 381.992188 1006.601563 L 381.992188 1010.191406 L 390.207031 1010.191406 L 390.207031 1013.148438 L 381.992188 1013.148438 L 381.992188 1017.46875 L 391.320313 1017.46875 L 391.320313 1020.453125 "/>
<path style=" stroke:none;fill-rule:nonzero;fill:rgb(0%,0%,0%);fill-opacity:1;" d="M 396.476563 1020.453125 L 396.476563 1006.601563 L 391.421875 1006.601563 L 391.421875 1003.695313 L 405.070313 1003.695313 L 405.070313 1006.601563 L 399.988281 1006.601563 L 399.988281 1020.453125 "/>
<path style=" stroke:none;fill-rule:nonzero;fill:rgb(0%,0%,0%);fill-opacity:1;" d="M 417.175781 1020.453125 L 417.097656 1018.785156 C 416.695313 1019.492188 416.046875 1020.042969 415.152344 1020.4375 C 414.261719 1020.835938 413.234375 1021.035156 412.070313 1021.035156 C 410.90625 1021.035156 409.859375 1020.785156 408.921875 1020.289063 C 407.988281 1019.792969 407.1875 1019.125 406.523438 1018.289063 C 405.855469 1017.457031 405.347656 1016.496094 404.992188 1015.410156 C 404.640625 1014.324219 404.460938 1013.199219 404.460938 1012.035156 C 404.460938 1010.804688 404.640625 1009.648438 404.992188 1008.558594 C 405.347656 1007.472656 405.867188 1006.523438 406.558594 1005.71875 C 407.25 1004.910156 408.109375 1004.273438 409.136719 1003.808594 C 410.164063 1003.347656 411.359375 1003.113281 412.726563 1003.113281 C 413.722656 1003.113281 414.652344 1003.257813 415.519531 1003.542969 C 416.386719 1003.832031 417.144531 1004.226563 417.792969 1004.730469 C 418.441406 1005.238281 418.964844 1005.839844 419.359375 1006.539063 C 419.757813 1007.238281 419.988281 1008.007813 420.054688 1008.851563 L 416.511719 1008.851563 C 416.460938 1008.464844 416.324219 1008.097656 416.105469 1007.75 C 415.886719 1007.40625 415.605469 1007.105469 415.269531 1006.855469 C 414.929688 1006.601563 414.539063 1006.398438 414.089844 1006.25 C 413.644531 1006.097656 413.183594 1006.019531 412.710938 1006.019531 C 411.292969 1006.019531 410.15625 1006.546875 409.304688 1007.601563 C 408.449219 1008.65625 408.027344 1010.183594 408.027344 1012.1875 C 408.027344 1012.878906 408.113281 1013.574219 408.289063 1014.273438 C 408.46875 1014.972656 408.746094 1015.601563 409.128906 1016.167969 C 409.507813 1016.734375 409.992188 1017.191406 410.585938 1017.546875 C 411.175781 1017.898438 411.878906 1018.078125 412.691406 1018.078125 C 413.261719 1018.078125 413.800781 1017.976563 414.300781 1017.769531 C 414.796875 1017.570313 415.230469 1017.292969 415.605469 1016.9375 C 415.976563 1016.585938 416.265625 1016.175781 416.476563 1015.714844 C 416.691406 1015.25 416.796875 1014.757813 416.796875 1014.234375 L 413.078125 1014.234375 L 413.078125 1011.429688 L 420.082031 1011.429688 L 420.082031 1020.453125 "/>
<path style=" stroke:none;fill-rule:nonzero;fill:rgb(0%,0%,0%);fill-opacity:1;" d="M 429.179688 1018.023438 C 429.800781 1018.023438 430.394531 1017.910156 430.949219 1017.683594 C 431.503906 1017.457031 431.988281 1017.113281 432.402344 1016.648438 C 432.816406 1016.183594 433.140625 1015.589844 433.375 1014.867188 C 433.609375 1014.140625 433.730469 1013.28125 433.730469 1012.289063 C 433.730469 1010.300781 433.339844 1008.792969 432.566406 1007.761719 C 431.789063 1006.738281 430.660156 1006.222656 429.179688 1006.222656 C 427.695313 1006.222656 426.558594 1006.738281 425.769531 1007.761719 C 424.976563 1008.792969 424.578125 1010.300781 424.578125 1012.289063 C 424.578125 1014.277344 424.980469 1015.730469 425.78125 1016.648438 C 426.578125 1017.566406 427.714844 1018.023438 429.179688 1018.023438 M 429.179688 1021.035156 C 426.585938 1021.035156 424.59375 1020.273438 423.203125 1018.757813 C 421.8125 1017.242188 421.117188 1015.0625 421.117188 1012.210938 C 421.117188 1010.796875 421.296875 1009.527344 421.648438 1008.398438 C 422.003906 1007.269531 422.523438 1006.3125 423.214844 1005.527344 C 423.90625 1004.746094 424.746094 1004.144531 425.742188 1003.734375 C 426.738281 1003.320313 427.882813 1003.113281 429.179688 1003.113281 C 430.460938 1003.113281 431.601563 1003.320313 432.605469 1003.734375 C 433.605469 1004.144531 434.445313 1004.75 435.117188 1005.539063 C 435.792969 1006.332031 436.308594 1007.296875 436.660156 1008.433594 C 437.015625 1009.570313 437.191406 1010.859375 437.191406 1012.289063 C 437.191406 1015.1875 436.503906 1017.367188 435.132813 1018.835938 C 433.757813 1020.300781 431.773438 1021.035156 429.179688 1021.035156 "/>
<path style=" stroke:none;fill-rule:nonzero;fill:rgb(0%,0%,0%);fill-opacity:1;" d="M 444.113281 1018.101563 C 444.90625 1018.101563 445.566406 1017.773438 446.097656 1017.117188 C 446.628906 1016.457031 446.894531 1015.601563 446.894531 1014.539063 C 446.894531 1011.839844 445.976563 1010.496094 444.140625 1010.496094 C 442.253906 1010.496094 441.308594 1011.773438 441.308594 1014.335938 C 441.308594 1015.449219 441.570313 1016.351563 442.09375 1017.050781 C 442.613281 1017.75 443.289063 1018.101563 444.113281 1018.101563 M 446.84375 1020.453125 L 446.820313 1018.9375 C 446.0625 1020.164063 444.90625 1020.78125 443.355469 1020.78125 C 442.5625 1020.78125 441.839844 1020.628906 441.183594 1020.328125 C 440.523438 1020.023438 439.960938 1019.582031 439.488281 1019.011719 C 439.015625 1018.4375 438.644531 1017.738281 438.378906 1016.914063 C 438.109375 1016.085938 437.972656 1015.152344 437.972656 1014.109375 C 437.972656 1013.164063 438.089844 1012.300781 438.3125 1011.519531 C 438.542969 1010.734375 438.875 1010.058594 439.3125 1009.484375 C 439.753906 1008.910156 440.285156 1008.46875 440.917969 1008.15625 C 441.550781 1007.84375 442.269531 1007.691406 443.078125 1007.691406 C 444.609375 1007.691406 445.84375 1008.335938 446.769531 1009.636719 L 446.769531 1003.464844 L 450.003906 1003.464844 L 450.003906 1020.453125 "/>
<path style=" stroke:none;fill-rule:nonzero;fill:rgb(0%,0%,0%);fill-opacity:1;" d="M 459.507813 1013.019531 C 459.488281 1012.566406 459.40625 1012.167969 459.265625 1011.820313 C 459.121094 1011.476563 458.933594 1011.1875 458.695313 1010.960938 C 458.460938 1010.734375 458.191406 1010.566406 457.890625 1010.457031 C 457.585938 1010.347656 457.273438 1010.292969 456.953125 1010.292969 C 456.296875 1010.292969 455.726563 1010.53125 455.246094 1011.011719 C 454.769531 1011.492188 454.492188 1012.164063 454.425781 1013.019531 Z M 454.324219 1015.09375 C 454.375 1016.039063 454.648438 1016.785156 455.148438 1017.34375 C 455.644531 1017.898438 456.296875 1018.175781 457.105469 1018.175781 C 457.644531 1018.175781 458.121094 1018.054688 458.53125 1017.8125 C 458.945313 1017.566406 459.210938 1017.226563 459.328125 1016.785156 L 462.714844 1016.785156 C 462.328125 1018.066406 461.652344 1019.050781 460.695313 1019.746094 C 459.734375 1020.4375 458.585938 1020.78125 457.257813 1020.78125 C 453.109375 1020.78125 451.039063 1018.523438 451.039063 1014.007813 C 451.039063 1013.046875 451.175781 1012.179688 451.441406 1011.40625 C 451.714844 1010.628906 452.105469 1009.960938 452.617188 1009.40625 C 453.132813 1008.851563 453.761719 1008.425781 454.503906 1008.132813 C 455.242188 1007.835938 456.09375 1007.691406 457.054688 1007.691406 C 458.976563 1007.691406 460.429688 1008.304688 461.414063 1009.535156 C 462.402344 1010.765625 462.894531 1012.617188 462.894531 1015.09375 "/>
<path style=" stroke:none;fill-rule:nonzero;fill:rgb(0%,0%,0%);fill-opacity:1;" d="M 471.386719 1011.78125 C 471.300781 1011.210938 471.085938 1010.792969 470.738281 1010.53125 C 470.394531 1010.269531 469.867188 1010.140625 469.160156 1010.140625 C 468.488281 1010.140625 467.976563 1010.21875 467.632813 1010.378906 C 467.285156 1010.539063 467.113281 1010.8125 467.113281 1011.203125 C 467.113281 1011.539063 467.285156 1011.808594 467.632813 1012.011719 C 467.976563 1012.210938 468.480469 1012.40625 469.136719 1012.589844 C 470.214844 1012.894531 471.121094 1013.152344 471.863281 1013.363281 C 472.605469 1013.574219 473.199219 1013.824219 473.644531 1014.109375 C 474.09375 1014.394531 474.410156 1014.753906 474.609375 1015.183594 C 474.800781 1015.613281 474.898438 1016.191406 474.898438 1016.914063 C 474.898438 1018.023438 474.433594 1018.949219 473.507813 1019.679688 C 472.582031 1020.414063 471.207031 1020.78125 469.390625 1020.78125 C 468.492188 1020.78125 467.6875 1020.679688 466.960938 1020.476563 C 466.238281 1020.273438 465.617188 1019.984375 465.105469 1019.605469 C 464.589844 1019.226563 464.195313 1018.769531 463.914063 1018.242188 C 463.640625 1017.710938 463.488281 1017.117188 463.472656 1016.457031 L 466.859375 1016.457031 C 466.859375 1017.054688 467.09375 1017.515625 467.554688 1017.84375 C 468.019531 1018.167969 468.621094 1018.328125 469.363281 1018.328125 C 469.984375 1018.328125 470.519531 1018.234375 470.96875 1018.039063 C 471.414063 1017.84375 471.636719 1017.542969 471.636719 1017.136719 C 471.636719 1016.679688 471.472656 1016.351563 471.144531 1016.152344 C 470.816406 1015.949219 470.316406 1015.769531 469.640625 1015.617188 C 468.429688 1015.347656 467.449219 1015.066406 466.710938 1014.769531 C 465.96875 1014.472656 465.390625 1014.148438 464.976563 1013.792969 C 464.566406 1013.441406 464.285156 1013.050781 464.144531 1012.628906 C 464 1012.207031 463.929688 1011.734375 463.929688 1011.210938 C 463.929688 1010.738281 464.027344 1010.289063 464.21875 1009.867188 C 464.410156 1009.445313 464.722656 1009.074219 465.144531 1008.753906 C 465.5625 1008.429688 466.109375 1008.175781 466.785156 1007.980469 C 467.460938 1007.785156 468.285156 1007.6875 469.261719 1007.6875 C 471.046875 1007.6875 472.351563 1008.050781 473.179688 1008.777344 C 474.003906 1009.5 474.460938 1010.503906 474.542969 1011.78125 "/>
<path style=" stroke:none;fill-rule:nonzero;fill:rgb(0%,0%,0%);fill-opacity:1;" d="M 475.78125 1008.015625 L 479.070313 1008.015625 L 479.070313 1020.453125 L 475.78125 1020.453125 Z M 475.78125 1003.464844 L 479.070313 1003.464844 L 479.070313 1006.527344 L 475.78125 1006.527344 Z M 475.78125 1003.464844 "/>
<g clip-path="url(#clip1)" clip-rule="nonzero">
<path style=" stroke:none;fill-rule:nonzero;fill:rgb(0%,0%,0%);fill-opacity:1;" d="M 486.421875 1017.949219 C 487.230469 1017.949219 487.902344 1017.640625 488.433594 1017.03125 C 488.960938 1016.417969 489.226563 1015.582031 489.226563 1014.523438 C 489.226563 1011.871094 488.292969 1010.542969 486.421875 1010.542969 C 484.550781 1010.542969 483.617188 1011.800781 483.617188 1014.324219 C 483.617188 1015.429688 483.882813 1016.3125 484.410156 1016.96875 C 484.941406 1017.621094 485.613281 1017.949219 486.421875 1017.949219 M 489.128906 1018.765625 C 488.890625 1019.328125 488.464844 1019.765625 487.851563 1020.082031 C 487.234375 1020.394531 486.523438 1020.550781 485.714844 1020.550781 C 484.6875 1020.550781 483.820313 1020.371094 483.125 1020.011719 C 482.425781 1019.648438 481.859375 1019.171875 481.429688 1018.582031 C 481 1017.992188 480.6875 1017.308594 480.496094 1016.535156 C 480.300781 1015.761719 480.203125 1014.96875 480.203125 1014.160156 C 480.203125 1013.199219 480.347656 1012.316406 480.636719 1011.515625 C 480.921875 1010.71875 481.308594 1010.035156 481.796875 1009.46875 C 482.285156 1008.90625 482.859375 1008.46875 483.515625 1008.15625 C 484.171875 1007.84375 484.882813 1007.6875 485.640625 1007.6875 C 487.1875 1007.6875 488.351563 1008.3125 489.128906 1009.558594 L 489.128906 1008.015625 L 492.410156 1008.015625 L 492.410156 1020.578125 C 492.410156 1021.519531 492.253906 1022.351563 491.929688 1023.066406 C 491.609375 1023.785156 491.171875 1024.382813 490.617188 1024.863281 C 490.0625 1025.34375 489.402344 1025.710938 488.648438 1025.960938 C 487.886719 1026.214844 487.078125 1026.339844 486.21875 1026.339844 C 485.359375 1026.339844 484.558594 1026.21875 483.820313 1025.96875 C 483.074219 1025.722656 482.441406 1025.375 481.910156 1024.925781 C 481.378906 1024.472656 480.964844 1023.925781 480.660156 1023.285156 C 480.355469 1022.640625 480.203125 1021.917969 480.203125 1021.109375 L 483.234375 1021.109375 C 483.234375 1021.867188 483.484375 1022.453125 483.984375 1022.867188 C 484.484375 1023.277344 485.152344 1023.484375 485.980469 1023.484375 C 486.859375 1023.484375 487.601563 1023.246094 488.214844 1022.765625 C 488.820313 1022.285156 489.128906 1021.632813 489.128906 1020.808594 "/>
</g>
<path style=" stroke:none;fill-rule:nonzero;fill:rgb(0%,0%,0%);fill-opacity:1;" d="M 501.6875 1020.453125 L 501.6875 1012.921875 C 501.6875 1011.960938 501.527344 1011.3125 501.203125 1010.972656 C 500.886719 1010.636719 500.339844 1010.46875 499.5625 1010.46875 C 497.863281 1010.46875 497.011719 1011.421875 497.011719 1013.324219 L 497.011719 1020.453125 L 493.726563 1020.453125 L 493.726563 1008.015625 L 496.859375 1008.015625 L 496.859375 1009.832031 C 497.246094 1009.117188 497.757813 1008.578125 498.394531 1008.210938 C 499.035156 1007.847656 499.855469 1007.664063 500.867188 1007.664063 C 501.453125 1007.664063 501.996094 1007.75 502.503906 1007.929688 C 503.003906 1008.105469 503.4375 1008.371094 503.800781 1008.726563 C 504.160156 1009.082031 504.449219 1009.515625 504.65625 1010.03125 C 504.867188 1010.546875 504.972656 1011.140625 504.972656 1011.816406 L 504.972656 1020.453125 "/>
<path style=" stroke:none;fill-rule:nonzero;fill:rgb(0%,0%,0%);fill-opacity:1;" d="M 506.234375 1020.453125 L 509.75 1020.453125 L 509.75 1017.039063 L 506.234375 1017.039063 Z M 506.234375 1020.453125 "/>
<path style=" stroke:none;fill-rule:nonzero;fill:rgb(0%,0%,0%);fill-opacity:1;" d="M 521.527344 1015.953125 C 521.441406 1016.679688 521.234375 1017.335938 520.90625 1017.925781 C 520.578125 1018.515625 520.160156 1019.019531 519.65625 1019.4375 C 519.148438 1019.863281 518.574219 1020.191406 517.925781 1020.425781 C 517.273438 1020.660156 516.570313 1020.78125 515.8125 1020.78125 C 514.972656 1020.78125 514.199219 1020.640625 513.503906 1020.363281 C 512.800781 1020.085938 512.199219 1019.664063 511.695313 1019.101563 C 511.1875 1018.535156 510.796875 1017.835938 510.519531 1017.003906 C 510.242188 1016.167969 510.101563 1015.195313 510.101563 1014.082031 C 510.101563 1012.972656 510.242188 1012.011719 510.519531 1011.203125 C 510.796875 1010.390625 511.1875 1009.730469 511.695313 1009.21875 C 512.199219 1008.703125 512.808594 1008.320313 513.527344 1008.066406 C 514.242188 1007.816406 515.039063 1007.6875 515.914063 1007.6875 C 516.722656 1007.6875 517.460938 1007.800781 518.128906 1008.015625 C 518.792969 1008.238281 519.375 1008.558594 519.871094 1008.976563 C 520.367188 1009.398438 520.757813 1009.90625 521.046875 1010.496094 C 521.332031 1011.082031 521.503906 1011.742188 521.550781 1012.464844 L 518.238281 1012.464844 C 518.15625 1011.824219 517.898438 1011.324219 517.46875 1010.960938 C 517.039063 1010.597656 516.511719 1010.417969 515.890625 1010.417969 C 515.535156 1010.417969 515.207031 1010.476563 514.902344 1010.597656 C 514.601563 1010.714844 514.335938 1010.910156 514.109375 1011.1875 C 513.878906 1011.46875 513.699219 1011.839844 513.566406 1012.300781 C 513.429688 1012.765625 513.363281 1013.332031 513.363281 1014.007813 C 513.363281 1015.371094 513.605469 1016.382813 514.09375 1017.039063 C 514.585938 1017.699219 515.148438 1018.023438 515.789063 1018.023438 C 516.429688 1018.023438 516.976563 1017.847656 517.429688 1017.496094 C 517.886719 1017.140625 518.148438 1016.625 518.214844 1015.953125 "/>
<path style=" stroke:none;fill-rule:nonzero;fill:rgb(0%,0%,0%);fill-opacity:1;" d="M 528.476563 1018.023438 C 530.480469 1018.023438 531.484375 1016.761719 531.484375 1014.234375 C 531.484375 1011.726563 530.480469 1010.46875 528.476563 1010.46875 C 526.46875 1010.46875 525.46875 1011.726563 525.46875 1014.234375 C 525.46875 1016.761719 526.46875 1018.023438 528.476563 1018.023438 M 528.464844 1020.78125 C 527.453125 1020.78125 526.554688 1020.621094 525.761719 1020.300781 C 524.976563 1019.980469 524.304688 1019.53125 523.757813 1018.957031 C 523.214844 1018.382813 522.796875 1017.691406 522.511719 1016.878906 C 522.226563 1016.070313 522.082031 1015.183594 522.082031 1014.222656 C 522.082031 1013.242188 522.230469 1012.347656 522.523438 1011.539063 C 522.816406 1010.726563 523.242188 1010.035156 523.796875 1009.460938 C 524.351563 1008.886719 525.019531 1008.445313 525.800781 1008.132813 C 526.585938 1007.820313 527.46875 1007.664063 528.464844 1007.664063 C 529.4375 1007.664063 530.3125 1007.820313 531.085938 1008.132813 C 531.859375 1008.445313 532.519531 1008.882813 533.066406 1009.449219 C 533.613281 1010.011719 534.035156 1010.703125 534.328125 1011.511719 C 534.621094 1012.324219 534.769531 1013.226563 534.769531 1014.222656 C 534.769531 1015.21875 534.621094 1016.117188 534.328125 1016.917969 C 534.035156 1017.71875 533.613281 1018.410156 533.066406 1018.984375 C 532.519531 1019.554688 531.855469 1020 531.074219 1020.3125 C 530.289063 1020.625 529.421875 1020.78125 528.464844 1020.78125 "/>
<g clip-path="url(#clip2)" clip-rule="nonzero">
<path style=" stroke:none;fill-rule:nonzero;fill:rgb(0%,0%,0%);fill-opacity:1;" d="M 550.4375 1020.453125 L 550.4375 1012.921875 C 550.4375 1012.164063 550.261719 1011.546875 549.90625 1011.074219 C 549.554688 1010.605469 549.082031 1010.367188 548.492188 1010.367188 C 547.886719 1010.367188 547.382813 1010.621094 546.988281 1011.125 C 546.59375 1011.628906 546.394531 1012.265625 546.394531 1013.019531 L 546.394531 1020.453125 L 543.109375 1020.453125 L 543.109375 1012.972656 C 543.109375 1012.464844 543.074219 1012.050781 543.007813 1011.734375 C 542.941406 1011.414063 542.828125 1011.160156 542.667969 1010.972656 C 542.507813 1010.789063 542.300781 1010.65625 542.046875 1010.582031 C 541.796875 1010.507813 541.492188 1010.46875 541.136719 1010.46875 C 539.808594 1010.46875 539.140625 1011.277344 539.140625 1012.894531 L 539.140625 1020.453125 L 535.855469 1020.453125 L 535.855469 1008.015625 L 538.9375 1008.015625 L 538.9375 1009.832031 C 539.359375 1009 539.867188 1008.429688 540.457031 1008.125 C 541.046875 1007.816406 541.753906 1007.664063 542.578125 1007.664063 C 543 1007.664063 543.375 1007.699219 543.703125 1007.765625 C 544.03125 1007.835938 544.328125 1007.949219 544.589844 1008.109375 C 544.847656 1008.269531 545.097656 1008.480469 545.335938 1008.734375 C 545.570313 1008.988281 545.804688 1009.296875 546.039063 1009.652344 C 546.378906 1008.953125 546.824219 1008.449219 547.378906 1008.136719 C 547.9375 1007.820313 548.609375 1007.664063 549.402344 1007.664063 C 550.027344 1007.664063 550.597656 1007.769531 551.121094 1007.980469 C 551.644531 1008.191406 552.089844 1008.484375 552.460938 1008.867188 C 552.832031 1009.246094 553.121094 1009.6875 553.332031 1010.195313 C 553.542969 1010.703125 553.648438 1011.242188 553.648438 1011.816406 L 553.648438 1020.453125 "/>
</g>
<path style=" stroke:none;fill-rule:evenodd;fill:rgb(0%,0%,0%);fill-opacity:1;" d="M 407.5 563.3125 L 463.5 410.3125 L 358.5 87.3125 L 476.035156 404.363281 L 511.679688 408.144531 L 476.429688 410.683594 Z M 370.582031 438.894531 C 353.082031 442.144531 338.46875 436.886719 334.175781 426.144531 C 329.082031 413.394531 341.148438 400.089844 341.148438 400.089844 C 341.148438 400.089844 328.746094 425.3125 357.496094 429.8125 C 388.957031 434.734375 404.050781 420.894531 404.050781 420.894531 C 404.050781 420.894531 392.273438 434.867188 370.582031 438.894531 M 330.320313 516.144531 C 326.113281 516.992188 322.015625 518.558594 318.003906 520.113281 C 298.136719 527.816406 291.511719 538.8125 291.511719 538.8125 C 291.511719 538.8125 302.535156 510.726563 351.070313 498.144531 C 394.761719 486.820313 401.800781 436.214844 404.050781 429.644531 C 402.644531 433.257813 407.320313 500.644531 330.320313 516.144531 M 325.59375 421.894531 C 325.59375 421.894531 320.496094 450.359375 348.496094 453.027344 C 367.082031 454.796875 398.070313 432.644531 398.070313 432.644531 C 398.070313 432.644531 350.320313 492.144531 323.261719 460.5625 C 306.226563 440.675781 325.59375 421.894531 325.59375 421.894531 M 267.554688 592.769531 C 267.550781 592.75 267.542969 592.730469 267.539063 592.710938 C 267.539063 592.730469 267.535156 592.75 267.535156 592.769531 C 267.523438 592.691406 245.617188 540.289063 238.554688 527.457031 C 238.554688 527.457031 262.492188 564.289063 264.566406 565.167969 C 264.582031 565.171875 264.59375 565.183594 264.605469 565.175781 C 264.621094 565.179688 264.632813 565.164063 264.644531 565.160156 C 266.488281 563.863281 282.132813 522.816406 282.132813 522.816406 C 277.929688 536.847656 267.550781 592.6875 267.554688 592.769531 M 258.753906 464.128906 C 258.769531 464.128906 258.78125 464.136719 258.800781 464.132813 C 258.816406 464.132813 258.824219 464.121094 258.839844 464.117188 C 260.976563 463.125 280.488281 433.71875 280.488281 433.71875 C 275.109375 443.71875 260.847656 483.226563 260.847656 483.28125 C 260.84375 483.269531 260.839844 483.257813 260.835938 483.242188 C 260.832031 483.257813 260.828125 483.269531 260.828125 483.285156 C 260.816406 483.230469 238.554688 447.609375 231.1875 438.96875 C 231.1875 438.96875 256.457031 463.605469 258.753906 464.128906 M 194.328125 516.777344 C 190.316406 515.222656 186.21875 513.65625 182.011719 512.8125 C 105.011719 497.3125 109.6875 429.921875 108.28125 426.3125 C 111.203125 429.40625 124.511719 481.0625 161.261719 494.8125 C 198.011719 508.5625 200.6875 513.058594 208.511719 518.3125 C 222.5625 527.746094 230.839844 540.976563 230.839844 540.976563 C 230.839844 540.976563 214.195313 524.480469 194.328125 516.777344 M 37.5 417.3125 L 156.5 96.3125 L 51.5 419.3125 L 107.5 572.3125 Z M 154.832031 426.476563 C 183.582031 421.976563 171.183594 396.757813 171.183594 396.757813 C 171.183594 396.757813 183.25 410.0625 178.15625 422.8125 C 173.863281 433.554688 159.25 438.8125 141.75 435.5625 C 120.054688 431.53125 108.28125 417.5625 108.28125 417.5625 C 108.28125 417.5625 123.375 431.402344 154.832031 426.476563 M 186.738281 418.5625 C 186.738281 418.5625 206.105469 437.34375 189.070313 457.226563 C 162.011719 488.8125 114.261719 429.3125 114.261719 429.3125 C 114.261719 429.3125 145.246094 451.460938 163.835938 449.691406 C 191.835938 447.027344 186.738281 418.5625 186.738281 418.5625 M 326.480469 0 C 319.921875 4.261719 321.453125 12.339844 321.199219 18.488281 C 320.886719 25.929688 322.027344 34.34375 319.613281 41.734375 C 316.066406 52.585938 304.359375 60.507813 304.820313 75.019531 C 310.347656 69.917969 314.460938 59.628906 325.953125 59.171875 C 335.703125 71.75 338.765625 89.453125 343.386719 106.714844 C 354.546875 148.382813 367.617188 193.09375 375.609375 237.203125 C 377.296875 246.496094 379.703125 256.847656 379.308594 266.257813 C 378.699219 280.796875 361.496094 287.996094 353.953125 298.484375 C 349.34375 304.890625 348.703125 311.019531 346.558594 320.144531 C 356.214844 308.066406 376.175781 289.355469 394.628906 302.183594 C 397.953125 329.089844 408.441406 360.0625 410.480469 390.40625 C 411.820313 410.441406 403.929688 419.152344 387.761719 421.574219 C 377.390625 423.128906 357.964844 420.988281 351.839844 416.820313 C 341.273438 409.628906 350.960938 395.726563 356.59375 389.878906 C 361.578125 384.699219 367.523438 380.816406 371.914063 377.726563 C 334.847656 380.105469 319.339844 404.042969 310.632813 434.78125 C 309.253906 415.265625 317.136719 402.191406 321.199219 389.878906 C 303.929688 398.316406 292.992188 413.089844 287.386719 433.195313 C 283.6875 403.808594 266.476563 384.242188 251.464844 364.519531 C 246.582031 358.105469 239.921875 349.921875 238.257813 342.332031 C 232.453125 315.863281 261.136719 307.429688 277.878906 299.011719 C 300.0625 287.859375 319.65625 274.015625 321.726563 245.128906 C 323.847656 215.503906 303.941406 200.835938 283.6875 193.355469 C 277.070313 190.910156 265.621094 188.679688 265.199219 184.375 C 264.570313 177.945313 276.648438 171.925781 282.632813 168.523438 C 293.304688 162.464844 304.210938 156.324219 302.707031 144.753906 C 298.761719 155.976563 286.671875 159.359375 271.011719 160.074219 C 261.734375 160.492188 247.46875 161.242188 242.484375 158.488281 C 238.445313 156.257813 234.171875 145.261719 231.917969 138.941406 C 227.140625 125.53125 223.675781 109.6875 229.804688 96.148438 C 225.96875 100.367188 220.660156 105.945313 218.183594 111.996094 C 213.097656 124.425781 219.320313 139.445313 217.652344 154.789063 C 216.210938 168.097656 203.6875 179.347656 202.859375 189.128906 C 202.320313 195.550781 204.976563 199.738281 203.917969 204.976563 C 202.425781 212.363281 196.144531 214.949219 193.882813 221.355469 C 190.660156 230.46875 196.671875 246.257813 205.503906 249.351563 C 205.59375 243.394531 207.839844 237.726563 209.179688 233.3125 C 213.808594 218.035156 233.234375 204.621094 250.40625 202.863281 C 273.460938 200.503906 295.574219 212.882813 302.707031 229.277344 C 306.511719 238.015625 305.578125 249.933594 301.121094 257.277344 C 285.757813 282.601563 246.988281 281.550781 222.40625 301.652344 C 214.28125 308.300781 205.800781 319.457031 202.859375 332.292969 C 195.386719 364.96875 216.925781 388.980469 220.824219 416.820313 C 214.617188 405.0625 204.027344 394.875 192.296875 390.40625 C 198.402344 402.082031 204.851563 416.238281 202.859375 434.253906 C 195.082031 403.820313 178.667969 379.207031 142.636719 378.785156 C 151.714844 384.347656 166.605469 392.449219 166.9375 406.253906 C 167.269531 420.007813 148.117188 422.027344 134.714844 422.101563 C 124.828125 422.15625 114.710938 419.101563 109.882813 414.707031 C 96.757813 402.757813 106.792969 368.707031 110.410156 349.726563 C 113.714844 332.398438 116.859375 315.660156 119.921875 301.125 C 137.648438 291.484375 153.582031 304.757813 162.183594 314.332031 C 163.941406 316.289063 166.082031 319.980469 167.46875 319.085938 C 165.402344 311.0625 164.910156 305.351563 161.128906 299.539063 C 154.238281 288.960938 139.496094 283.175781 135.769531 271.011719 C 133.453125 263.453125 136.445313 250.757813 137.882813 241.957031 C 139.496094 232.082031 141.855469 222.636719 143.691406 214.484375 C 152.214844 176.648438 160.519531 142.59375 170.105469 107.773438 C 174.992188 90.035156 178.617188 71.808594 188.597656 59.171875 C 191.679688 60.492188 195.355469 61.214844 198.636719 62.339844 C 200.683594 63.597656 202.109375 66.898438 203.917969 69.207031 C 205.605469 71.359375 207.941406 74.664063 209.199219 73.960938 C 208.546875 61.296875 201.757813 55.804688 197.050781 46.492188 C 193.554688 39.570313 192.914063 31.734375 192.824219 23.25 C 192.742188 15.421875 195.1875 5.03125 188.070313 0 C 125.175781 135.902344 62.804688 272.367188 0 408.367188 C 62.691406 543.441406 124.050781 679.824219 187.015625 814.621094 L 187.015625 657.71875 C 185.867188 657.558594 178.898438 651.695313 177.511719 651.3125 C 177.261719 654.5625 173.566406 654.308594 173.566406 654.308594 L 169.5625 648.0625 L 164.011719 651.5625 L 164.011719 647.0625 L 158.261719 647.0625 L 156.5 639.8125 L 150.011719 640.8125 C 150.011719 640.8125 146.757813 630.738281 143.84375 626.703125 C 139.273438 620.375 134.746094 612.984375 134.183594 608.0625 C 133.601563 602.96875 135.785156 595.332031 136.824219 588.515625 C 140.140625 566.789063 144.675781 538.097656 142.109375 516.140625 C 170.109375 524.414063 186.125 544.671875 190.183594 576.890625 C 196.503906 564.414063 194.835938 541.96875 193.351563 527.234375 C 206.5 532.898438 215.679688 538.671875 224.519531 546.78125 C 232.910156 554.46875 241.445313 564.8125 245.652344 576.363281 C 250.371094 589.3125 252.71875 600.746094 255.691406 614.398438 C 257.660156 623.445313 259.644531 633.703125 260.171875 643.820313 C 260.214844 644.679688 277.136719 658.5625 277.136719 658.5625 C 277.136719 658.5625 260.308594 648.507813 260.300781 649.5625 C 260.277344 651.957031 260.15625 654.332031 259.917969 656.664063 C 259.699219 658.757813 259.238281 660.832031 258.605469 662.871094 C 256.714844 668.992188 253.292969 674.789063 250.40625 679.90625 C 241.855469 695.070313 235.269531 707.347656 227.164063 722.699219 C 223.175781 730.25 218.144531 737.890625 217.125 745.945313 C 216.375 751.875 222.632813 764.058594 226.105469 771.828125 C 229.316406 779.019531 236.105469 789.035156 235.613281 797.1875 C 235.039063 806.816406 225.039063 817.1875 219.238281 825.714844 C 214.644531 832.472656 202.925781 844.960938 202.859375 854.769531 C 202.835938 858.976563 206.117188 865.734375 208.144531 870.621094 C 223.265625 907.085938 239.214844 938.832031 255.691406 973.632813 C 269.335938 942.375 297.636719 879.421875 297.636719 879.421875 L 292.679688 883.3125 C 292.679688 883.3125 289.296875 882.46875 288.679688 880.902344 C 282.84375 889.8125 251.46875 900.4375 234.03125 885.410156 C 228.285156 880.460938 218.480469 866.585938 219.238281 856.355469 C 219.597656 851.558594 223.828125 846.207031 227.164063 841.5625 C 234.277344 831.644531 239.847656 824.847656 246.183594 815.148438 C 249.273438 810.410156 253.4375 804.585938 254.105469 799.828125 C 255.386719 790.734375 250.3125 782.15625 247.765625 773.941406 C 245.742188 767.414063 240.726563 754.734375 241.425781 747.527344 C 241.972656 741.910156 248.78125 731.992188 252.519531 725.867188 C 256.835938 718.800781 260.910156 712.539063 265.199219 705.792969 C 274.5625 691.066406 285.417969 678.941406 290.558594 665.644531 C 296.203125 651.03125 293.964844 628.652344 292.144531 611.230469 C 290.894531 599.296875 287.96875 586.898438 288.972656 574.777344 C 290.972656 550.648438 302.570313 538.472656 321.199219 527.761719 C 318.285156 543.769531 318.320313 564.320313 323.839844 577.421875 C 328.027344 544.980469 343.878906 524.203125 372.441406 516.140625 C 371.859375 521.019531 371.492188 530.804688 371.492188 530.804688 L 378.011719 534.0625 L 377.261719 538.5625 L 380.011719 540.976563 L 377.761719 547.8125 L 383.011719 548.3125 L 382.761719 554.3125 L 373.511719 549.0625 L 376.761719 555.0625 L 372.957031 557.792969 C 372.957031 557.792969 375.355469 576.0625 376.667969 584.816406 C 377.839844 592.617188 380.773438 602.050781 379.839844 608.589844 C 379.304688 612.335938 374.707031 619.503906 371.914063 623.910156 C 368.457031 629.363281 365.429688 633.042969 361.878906 637.117188 C 358.964844 640.453125 355.683594 643.683594 352.121094 646.558594 C 350.347656 647.992188 352.15625 655.253906 350.40625 656.253906 C 348.660156 657.253906 346.511719 656.0625 346.511719 656.0625 L 346.511719 660.8125 L 343.011719 657.5625 C 343.011719 657.5625 342.386719 662.1875 340.84375 662.3125 C 338.699219 660.664063 336.511719 657.3125 336.511719 657.3125 C 336.511719 657.3125 330.058594 657.492188 327.011719 657.71875 C 327.289063 699.425781 326.675781 692.03125 327.039063 733.652344 C 327.054688 735.324219 331.34375 733.3125 331.34375 733.3125 L 330.679688 739.476563 C 330.679688 739.476563 333.34375 736.644531 335.179688 738.144531 C 335.847656 738.527344 332.84375 741.8125 332.84375 741.8125 C 332.84375 741.8125 335.972656 744.105469 335.511719 745.644531 C 336.765625 745.484375 346.070313 736.859375 347.179688 739.976563 C 347.527344 740.964844 348.414063 755.328125 349.761719 754.8125 C 351.738281 757.34375 352.019531 761.210938 352.441406 760.28125 C 409.820313 633.890625 456.414063 533.996094 514.023438 407.839844 C 451.226563 272.171875 388.53125 136.414063 326.480469 0 "/>
</g>
</svg>
